<svg width="50" height="50" viewBox="0 0 50 50" fill="none" xmlns="http://www.w3.org/2000/svg">
<rect width="50" height="50" rx="25" fill="#E2E8F0"/>
<g clip-path="url(#clip0_100_4575)">
<path d="M25 25C27.7625 25 30 22.7625 30 20C30 17.2375 27.7625 15 25 15C22.2375 15 20 17.2375 20 20C20 22.7625 22.2375 25 25 25ZM25 27.5C21.6625 27.5 15 29.175 15 32.5V33.75C15 34.4375 15.5625 35 16.25 35H33.75C34.4375 35 35 34.4375 35 33.75V32.5C35 29.175 28.3375 27.5 25 27.5Z" fill="#F6F8FC"/>
</g>
<defs>
<clipPath id="clip0_100_4575">
<rect width="30" height="30" fill="white" transform="translate(10 10)"/>
</clipPath>
</defs>
</svg>
