<?xml version="1.0" standalone="no"?>
<!DOCTYPE svg PUBLIC "-//W3C//DTD SVG 20010904//EN"
 "http://www.w3.org/TR/2001/REC-SVG-20010904/DTD/svg10.dtd">
<svg version="1.0" xmlns="http://www.w3.org/2000/svg"
 width="1503.000000pt" height="1503.000000pt" viewBox="0 0 1503.000000 1503.000000"
 preserveAspectRatio="xMidYMid meet">
<metadata>
Created by potrace 1.14, written by Peter Selinger 2001-2017
</metadata>
<g transform="translate(0.000000,1503.000000) scale(0.100000,-0.100000)"
fill="#000000" stroke="none">
<path d="M3219 12761 c-1 -3 -1 -9 0 -13 1 -7 -63 -13 -99 -9 -13 2 -13 1 0
-8 8 -5 19 -7 25 -4 5 4 6 2 2 -2 -4 -5 -20 -11 -35 -13 -15 -2 -30 -8 -33
-14 -4 -7 -9 -5 -12 3 -4 10 -6 9 -6 -3 -1 -10 -4 -17 -8 -17 -25 4 -53 -3
-53 -12 0 -6 7 -8 16 -5 8 3 12 2 9 -4 -3 -6 -17 -10 -31 -10 -15 0 -24 -6
-24 -15 0 -8 -7 -16 -15 -16 -8 -1 -21 -2 -27 -3 -7 0 -13 -5 -13 -11 0 -5 -6
-19 -14 -30 -9 -15 -11 -16 -7 -2 3 9 1 17 -4 17 -6 0 -10 -9 -10 -20 0 -13
-5 -18 -15 -14 -8 4 -15 2 -15 -4 0 -6 6 -13 13 -15 11 -5 -18 -11 -36 -8 -5
1 -6 -3 -2 -9 3 -6 11 -8 16 -5 5 4 9 1 9 -4 0 -6 -9 -11 -20 -11 -13 0 -18
-5 -14 -15 4 -9 0 -15 -10 -15 -9 0 -16 -8 -16 -21 0 -11 -4 -17 -10 -14 -5 3
-10 -1 -10 -9 0 -9 -4 -16 -9 -16 -4 0 -7 -13 -5 -30 3 -21 -1 -30 -11 -30
-13 0 -21 -34 -16 -64 1 -5 -4 -4 -11 2 -13 11 -17 -4 -21 -75 0 -7 -7 -13
-16 -13 -13 -1 -12 -4 4 -17 15 -12 16 -14 3 -10 -11 4 -17 0 -17 -11 -4 -85
-7 -110 -14 -105 -4 2 -5 8 -2 13 3 5 1 11 -5 15 -6 4 -10 -8 -10 -29 0 -22
-6 -39 -17 -46 -15 -9 -15 -11 -2 -7 12 4 17 -1 17 -19 0 -23 -2 -23 -14 -7
-12 16 -14 12 -15 -34 -2 -66 -2 -70 -11 -79 -4 -3 -6 3 -3 14 2 12 -1 24 -6
28 -5 3 -9 2 -8 -3 6 -33 -3 -103 -12 -100 -13 2 -17 -16 -20 -86 -2 -26 -6
-50 -10 -53 -5 -2 -6 5 -4 16 2 11 0 20 -4 20 -8 0 -10 -21 -14 -102 -1 -20
-5 -34 -9 -32 -5 3 -5 10 -2 16 4 7 2 8 -4 4 -7 -4 -12 -22 -12 -41 0 -18 -6
-36 -12 -38 -10 -4 -10 -6 0 -6 6 -1 12 -8 12 -17 0 -14 -3 -14 -15 -4 -13 11
-15 5 -16 -46 -1 -33 -1 -62 0 -66 0 -4 -6 -5 -14 -2 -12 5 -15 -2 -15 -31 0
-26 -4 -36 -12 -32 -9 3 -14 -8 -16 -32 -2 -20 -5 -47 -7 -61 -2 -14 -4 -29
-4 -33 -1 -5 -5 -5 -11 -2 -6 4 -10 -12 -10 -39 0 -31 -4 -46 -13 -46 -13 0
-14 -3 -19 -82 -2 -36 -6 -44 -15 -36 -10 8 -13 -1 -13 -40 0 -28 -5 -54 -12
-58 -7 -4 -8 -3 -4 4 4 7 3 12 -2 12 -5 0 -10 -17 -11 -37 -4 -65 -7 -82 -16
-90 -4 -5 -5 -3 -1 4 3 6 3 14 -2 17 -5 3 -9 -12 -10 -32 -2 -55 -7 -75 -20
-80 -7 -2 -12 -17 -12 -33 0 -21 -5 -29 -17 -30 -15 0 -15 -2 -3 -7 8 -4 16
-16 17 -27 1 -11 0 -14 -3 -7 -8 17 -27 15 -21 -2 3 -7 -1 -25 -8 -40 -8 -15
-10 -24 -5 -21 6 4 10 1 10 -4 0 -6 -7 -11 -15 -11 -8 0 -15 -4 -15 -10 0 -5
8 -7 18 -4 16 5 16 5 0 -6 -12 -7 -18 -24 -18 -50 0 -23 -6 -42 -14 -47 -9 -5
-16 -28 -18 -60 -2 -29 -7 -55 -11 -59 -3 -4 -4 4 -2 16 3 15 1 20 -5 14 -5
-5 -10 -27 -11 -49 -3 -47 -9 -62 -19 -46 -4 7 -8 -12 -9 -41 -2 -29 -3 -58
-4 -65 0 -7 -4 -10 -9 -7 -5 3 -6 10 -3 15 4 5 1 9 -5 9 -6 0 -10 -6 -9 -12 5
-41 -2 -108 -11 -103 -6 4 -7 12 -4 18 4 7 3 8 -2 4 -14 -13 -11 -31 6 -45 13
-11 13 -11 -2 -6 -13 5 -17 -2 -20 -33 -2 -24 -8 -37 -16 -35 -6 1 -11 -1 -11
-5 5 -30 -3 -93 -10 -88 -5 3 -12 1 -16 -5 -3 -5 1 -10 10 -10 9 0 13 -5 10
-10 -4 -6 -11 -8 -16 -5 -5 4 -9 -14 -9 -39 0 -34 -4 -46 -15 -46 -11 0 -15
-13 -16 -52 -1 -29 -1 -57 0 -61 1 -5 -3 -6 -9 -2 -6 3 -8 11 -5 16 4 5 2 9
-2 9 -5 0 -10 -25 -11 -55 0 -31 -6 -63 -12 -73 -9 -14 -10 -12 -7 11 3 16 1
25 -4 20 -5 -5 -9 -32 -10 -61 -2 -37 -6 -52 -16 -52 -8 0 -13 -6 -12 -12 5
-40 -2 -80 -14 -75 -8 3 -13 -10 -14 -42 -2 -25 -5 -55 -7 -66 -3 -11 -5 -22
-5 -25 -1 -3 -6 2 -11 10 -7 11 -10 4 -10 -27 0 -28 -5 -43 -12 -43 -8 0 -9
-3 -3 -8 6 -4 11 -13 13 -21 2 -11 0 -12 -11 -3 -11 10 -14 5 -16 -26 -2 -57
-6 -73 -20 -81 -7 -4 -12 -27 -13 -50 0 -23 -4 -44 -9 -47 -5 -3 -6 3 -3 13 5
15 4 16 -5 3 -6 -8 -11 -34 -11 -57 0 -24 -5 -43 -11 -43 -5 0 -7 5 -4 10 3 6
2 10 -4 10 -5 0 -9 -9 -8 -19 0 -11 4 -18 8 -15 4 2 11 0 14 -6 4 -6 1 -9 -7
-8 -8 2 -14 -9 -16 -29 -2 -21 -9 -33 -18 -33 -8 0 -14 -6 -13 -12 1 -7 1 -30
0 -50 -1 -31 -4 -36 -18 -32 -17 5 -17 5 0 -6 21 -13 23 -32 2 -24 -12 5 -15
-3 -17 -37 -2 -67 -2 -69 -16 -78 -7 -4 -14 -26 -15 -49 -1 -22 -5 -38 -9 -36
-5 3 -5 11 -2 17 4 7 3 8 -2 4 -11 -10 -11 -13 -13 -72 -1 -30 -5 -45 -14 -45
-8 0 -14 -6 -15 -12 0 -7 -2 -28 -3 -46 -1 -19 -8 -36 -16 -39 -8 -3 -13 -21
-13 -45 0 -29 -3 -37 -12 -32 -9 5 -8 2 1 -9 12 -15 12 -17 -1 -12 -11 4 -15
-1 -15 -17 -1 -64 -3 -70 -20 -64 -17 6 -17 5 0 -8 21 -16 22 -27 2 -20 -14 6
-18 -13 -18 -98 0 -10 -4 -15 -8 -12 -5 3 -7 9 -4 14 3 5 2 11 -3 14 -5 3 -9
-9 -9 -27 -2 -61 -7 -96 -15 -91 -5 3 -5 11 -2 17 4 7 3 8 -1 4 -11 -9 -13
-26 -16 -94 -1 -29 -6 -50 -10 -48 -4 3 -6 16 -5 30 2 13 0 22 -4 20 -5 -3 -9
-29 -10 -57 -3 -84 -3 -88 -15 -78 -11 9 -12 4 -19 -87 -1 -12 -5 -25 -9 -29
-3 -4 -5 3 -2 14 2 12 -1 24 -6 28 -5 3 -9 2 -8 -3 4 -21 -3 -126 -8 -115 -2
6 -9 9 -14 6 -6 -3 -5 -12 3 -22 10 -12 10 -14 1 -8 -9 5 -13 -2 -13 -24 0
-20 -4 -29 -11 -24 -8 4 -8 0 0 -15 7 -12 8 -21 2 -21 -5 0 -11 6 -13 12 -3 7
-5 -7 -6 -31 -2 -49 -9 -64 -24 -55 -7 4 -8 2 -4 -5 4 -6 12 -9 17 -6 5 4 9 1
9 -4 0 -6 -7 -11 -15 -11 -11 0 -15 -11 -15 -36 0 -21 -4 -33 -10 -29 -5 3
-10 1 -10 -4 0 -6 4 -11 8 -11 4 0 8 -9 8 -21 0 -19 -1 -19 -13 -3 -11 16 -13
13 -14 -22 -1 -21 0 -46 1 -53 1 -8 -5 -20 -14 -26 -8 -6 -16 -28 -18 -49 -1
-21 -6 -40 -12 -43 -5 -3 -6 -1 -2 5 3 6 2 13 -3 16 -15 10 -6 -25 10 -36 11
-8 11 -9 -3 -4 -15 4 -18 -1 -19 -27 -1 -18 -1 -35 0 -39 0 -5 -6 -8 -14 -8
-8 0 -15 -5 -15 -11 0 -5 4 -8 9 -4 5 3 13 0 17 -6 4 -7 3 -9 -4 -5 -13 8 -21
-5 -24 -38 -1 -14 -7 -26 -13 -26 -12 0 -18 -68 -18 -225 0 -176 4 -227 20
-221 9 4 13 -4 13 -24 0 -17 8 -38 19 -49 12 -12 17 -29 15 -47 -2 -16 -1 -23
2 -16 7 16 25 16 23 0 -4 -34 2 -50 16 -44 10 4 15 -1 15 -14 0 -11 7 -20 15
-20 8 0 15 -9 15 -21 0 -11 4 -18 9 -14 6 3 15 -4 21 -15 6 -11 16 -17 22 -14
7 5 8 2 4 -5 -5 -8 0 -14 13 -18 12 -3 21 -12 21 -19 0 -8 7 -14 15 -14 8 0
15 -7 15 -15 0 -9 9 -15 25 -15 14 0 28 -7 31 -15 4 -8 12 -15 19 -15 7 0 15
-5 17 -12 4 -11 18 -15 66 -20 14 -1 21 -7 18 -15 -4 -10 9 -13 48 -13 33 0
56 -5 58 -12 2 -6 23 -13 47 -15 25 -2 40 1 37 6 -4 5 -2 13 4 16 6 4 9 1 8
-7 -2 -10 14 -13 65 -14 37 -1 67 2 67 7 0 5 -7 6 -15 3 -8 -4 -15 -2 -15 3 0
16 34 11 48 -6 12 -14 13 -14 8 2 -5 15 2 17 50 17 34 0 53 4 49 10 -3 6 -2
10 4 10 5 0 12 -6 14 -12 4 -9 6 -8 6 2 1 10 13 16 37 17 20 1 43 8 51 15 8 7
27 13 42 14 14 1 45 3 68 5 23 1 40 6 38 10 -6 8 26 22 33 14 3 -3 0 -5 -7 -5
-7 0 -9 -5 -5 -11 5 -8 10 -6 16 5 6 10 22 16 47 16 25 0 41 5 45 15 3 8 9 15
13 14 4 -1 29 -1 56 0 35 1 47 5 47 16 0 8 4 15 10 15 5 0 7 -8 4 -17 -5 -17
-5 -17 9 -1 10 12 31 18 74 20 51 2 58 4 45 14 -14 10 -14 12 -2 11 8 -2 21
-7 29 -11 10 -6 12 -5 7 2 -5 9 6 12 37 12 27 0 49 6 57 15 8 10 31 15 66 15
30 0 53 3 53 8 -4 21 3 24 17 6 13 -16 15 -16 10 -1 -4 14 1 17 32 18 77 2
101 5 107 11 4 4 -5 5 -19 4 -14 -2 -23 1 -20 5 3 5 29 9 59 9 40 0 57 4 65
18 11 16 11 16 6 0 -3 -10 -1 -18 4 -18 6 0 10 7 10 15 0 11 13 15 55 15 37 0
57 5 62 15 6 10 27 15 66 16 32 1 61 7 64 12 4 6 1 7 -7 2 -8 -5 -11 -4 -7 2
3 5 26 10 51 12 l46 2 1 -1693 c1 -931 1 -1701 0 -1710 -1 -10 2 -18 8 -18 6
0 8 7 5 15 -4 8 -2 15 3 15 8 0 12 -32 16 -117 0 -10 4 -10 14 -1 8 6 13 7 12
2 -5 -31 3 -64 16 -64 14 0 20 -17 16 -47 -1 -7 3 -13 9 -13 6 0 9 4 5 9 -3 5
0 13 6 17 7 4 10 3 7 -2 -9 -15 10 -54 26 -54 10 0 13 -6 10 -15 -4 -9 0 -15
10 -15 9 0 16 -7 16 -15 0 -8 7 -15 15 -15 8 0 15 -7 15 -16 0 -10 6 -14 15
-10 8 3 15 1 15 -5 0 -6 4 -8 9 -4 5 3 13 0 17 -6 4 -7 3 -9 -4 -5 -6 3 -14 2
-17 -4 -4 -6 -3 -10 2 -9 4 1 19 1 32 0 17 -1 22 -5 17 -17 -5 -13 -2 -15 14
-11 11 3 20 1 20 -5 0 -5 5 -6 12 -2 6 4 16 0 22 -9 7 -9 32 -17 64 -19 28 -2
55 -8 59 -13 4 -4 3 -6 -2 -2 -6 3 -17 2 -25 -3 -9 -6 1199 -10 3068 -10 2166
0 3082 3 3082 11 0 6 -9 8 -20 4 -11 -3 -20 -2 -20 3 0 4 24 9 53 11 32 1 56
7 63 16 6 8 23 15 38 15 17 0 26 5 26 16 0 10 6 14 14 11 8 -3 22 1 33 10 17
14 17 14 0 9 -11 -3 -16 -2 -12 4 3 6 17 10 31 10 15 0 24 6 24 15 0 8 7 15
15 15 8 0 15 7 15 15 0 8 7 15 15 15 8 0 15 7 15 15 0 8 7 15 15 15 13 0 21
26 16 53 -1 5 3 6 9 2 6 -3 8 -11 5 -16 -4 -5 -1 -9 5 -9 6 0 10 6 9 13 -4 30
2 47 16 47 13 0 18 18 14 47 0 3 6 10 15 15 9 5 16 22 16 38 0 23 4 28 18 24
12 -4 14 -3 4 4 -7 5 -15 21 -16 36 -3 21 -1 24 10 15 12 -10 14 135 15 925 1
515 2 941 3 948 1 14 36 20 36 6 0 -6 -7 -7 -16 -4 -8 3 -12 2 -9 -3 8 -14 44
-9 38 5 -3 8 18 11 69 12 232 1 292 5 276 16 -13 9 -7 12 28 12 28 1 41 -2 37
-9 -4 -6 -1 -7 8 -1 20 12 36 14 96 15 29 0 55 4 58 9 3 5 0 7 -8 4 -8 -3 -17
-1 -20 3 -3 5 17 10 46 10 29 1 65 2 80 2 16 1 26 5 22 11 -3 6 -3 10 2 11 4
0 17 2 28 5 11 2 41 4 68 5 26 1 47 6 47 11 0 5 -4 7 -9 3 -5 -3 -12 -2 -14 2
-3 5 22 9 56 11 34 1 64 8 68 14 8 12 22 16 81 20 20 1 35 6 32 10 -3 5 -10 6
-15 3 -5 -4 -9 -2 -9 3 0 5 17 10 38 11 49 2 70 6 78 14 4 3 -4 4 -16 2 -12
-2 -20 -1 -16 2 7 7 25 11 69 15 15 1 27 7 27 14 0 6 15 12 33 13 54 3 56 4
51 13 -3 5 -11 5 -17 2 -7 -4 -8 -3 -4 2 10 10 14 11 58 13 16 0 28 5 24 10
-8 13 6 20 48 23 20 1 33 6 31 10 -3 5 -11 5 -17 2 -9 -5 -9 -4 -2 5 6 6 30
12 53 13 36 1 39 3 24 14 -15 12 -14 13 14 14 19 0 34 6 38 15 3 8 17 15 31
15 17 0 25 5 25 17 0 15 2 14 15 -3 13 -16 14 -16 9 -2 -5 14 -1 18 16 18 16
0 20 4 16 15 -3 9 -1 15 7 14 33 -4 57 2 57 16 0 9 9 15 24 15 14 0 28 4 31
10 3 6 -1 7 -9 4 -9 -3 -16 -1 -16 5 0 6 3 10 8 10 27 -5 52 3 52 16 0 9 9 15
25 15 14 0 28 7 31 15 4 8 15 15 25 15 13 0 17 5 12 18 -6 15 -5 16 13 2 10
-8 16 -10 11 -5 -10 12 22 45 45 45 10 0 18 7 18 15 0 10 7 15 17 13 10 -2 18
3 18 12 0 9 11 16 28 18 15 2 27 9 27 18 0 8 7 14 15 14 8 0 15 7 15 16 0 8 3
13 8 10 4 -2 18 2 32 11 14 8 17 12 8 9 -10 -3 -18 -1 -18 4 0 6 11 10 24 10
14 0 28 5 32 12 5 7 3 8 -6 3 -9 -5 -11 -4 -6 3 4 7 16 12 27 12 10 0 19 7 19
15 0 8 7 15 15 15 8 0 14 6 13 13 -2 6 3 11 10 9 8 -1 16 7 19 18 3 13 11 19
19 16 8 -3 14 0 14 7 0 15 44 57 60 57 7 0 10 7 6 16 -6 15 -4 15 11 3 11 -9
14 -10 9 -1 -4 6 -3 12 3 12 6 0 8 7 4 15 -3 9 -1 15 5 13 6 -2 17 5 24 15 7
10 22 19 33 21 11 2 22 13 25 26 5 23 37 42 54 32 5 -3 6 0 2 7 -4 6 -13 8
-19 5 -7 -4 3 7 21 24 17 17 32 36 32 41 0 6 7 11 15 11 8 0 15 7 15 15 0 8 7
15 15 15 8 0 15 7 15 15 0 8 7 15 15 15 10 0 15 7 13 17 -2 10 3 18 12 18 8 0
16 6 16 13 1 6 3 15 4 20 1 4 2 10 1 15 0 4 5 6 11 5 7 -2 12 3 10 10 -1 8 7
16 18 19 11 3 20 13 20 22 0 9 14 31 30 49 17 18 30 37 30 43 0 5 7 9 15 9 8
0 14 3 13 8 -4 15 14 52 23 47 5 -4 9 3 9 14 0 12 7 21 15 21 8 0 14 3 14 7
-1 5 -1 19 1 33 1 23 2 23 10 5 7 -18 9 -16 15 13 4 17 14 32 21 32 9 0 14 11
14 30 0 20 5 30 15 30 13 0 21 26 16 53 -1 5 3 6 9 2 6 -3 7 -12 4 -18 -5 -8
-4 -9 4 -2 6 6 12 25 14 43 1 19 7 36 12 39 5 3 6 1 2 -5 -4 -7 -2 -12 3 -12
6 0 11 11 11 25 0 16 6 25 16 25 8 0 13 4 10 9 -4 5 -1 22 5 37 8 23 12 25 19
14 7 -11 10 -5 10 21 0 23 6 39 15 43 8 3 15 17 15 31 0 14 5 24 12 23 6 -2
13 14 15 37 2 22 11 45 19 52 9 6 16 25 16 42 1 22 4 28 13 21 10 -8 15 12 18
79 0 10 3 10 12 -2 10 -14 12 -9 14 26 2 23 3 50 3 61 -1 17 0 17 11 2 10 -14
12 -10 15 26 2 24 10 47 20 55 16 12 15 13 -3 7 -18 -5 -19 -5 -3 8 10 9 18
32 19 56 2 23 8 42 14 42 6 0 12 19 14 42 1 25 9 47 19 55 16 12 16 13 0 7
-10 -3 -18 -1 -18 5 0 6 6 11 13 11 10 0 15 17 16 53 2 28 3 57 4 64 0 6 6 9
12 7 8 -4 13 15 14 58 4 98 6 117 14 124 3 4 5 -3 2 -15 -2 -11 0 -21 5 -21 5
0 8 12 6 28 -1 15 -8 26 -15 24 -7 -1 -10 2 -6 8 3 6 10 8 14 5 5 -2 9 28 11
68 1 39 3 80 3 90 1 10 6 16 12 13 7 -2 12 2 12 10 0 8 -5 13 -12 10 -7 -2
-11 7 -9 28 2 45 3 48 14 41 18 -11 11 67 -7 89 -17 20 -17 20 0 7 17 -14 18
-4 16 227 -1 133 -5 242 -10 242 -4 0 -6 -9 -4 -20 2 -11 1 -22 -3 -24 -4 -2
-8 28 -8 67 -2 147 -7 216 -16 229 -7 10 -8 9 -4 -4 3 -10 2 -19 -2 -22 -5 -3
-9 34 -11 82 -1 53 -6 89 -14 94 -11 7 -14 26 -19 109 -1 26 -6 35 -15 32 -10
-4 -13 8 -14 46 -2 68 -2 71 -14 79 -6 4 -12 23 -13 42 -1 19 -9 40 -18 46 -9
7 -15 29 -16 59 -1 46 -1 47 -14 24 l-14 -24 4 27 c5 31 -9 89 -23 98 -6 3
-11 22 -13 42 -1 20 -6 34 -10 32 -5 -3 -5 -10 -2 -16 4 -7 2 -8 -5 -4 -6 4
-11 13 -10 19 4 36 -2 77 -11 72 -6 -4 -7 -12 -4 -18 4 -7 3 -8 -2 -4 -10 10
-11 14 -13 58 -1 23 -5 30 -16 25 -15 -5 -20 11 -16 59 1 15 0 17 -7 7 -7 -11
-10 -10 -16 3 -3 9 -6 25 -6 36 0 10 -7 19 -15 19 -8 0 -15 4 -15 10 0 5 8 7
18 4 16 -5 16 -5 0 6 -10 6 -18 17 -18 25 0 8 -5 17 -12 21 -7 5 -8 3 -3 -6 5
-9 4 -11 -3 -6 -7 4 -12 20 -12 36 0 31 -15 48 -24 28 -4 -7 -4 -3 -2 10 2 12
0 22 -5 22 -4 0 -6 7 -3 15 5 11 2 13 -10 9 -12 -5 -16 0 -17 22 -1 16 -1 33
0 37 1 5 -3 6 -9 2 -6 -3 -7 -11 -4 -17 4 -7 2 -8 -4 -4 -7 4 -12 20 -12 36 0
22 -4 28 -15 24 -11 -5 -15 1 -15 25 0 21 -5 31 -15 31 -13 0 -21 26 -16 53 1
5 -3 6 -9 2 -6 -3 -8 -11 -5 -16 4 -5 1 -9 -4 -9 -6 0 -11 14 -11 30 0 20 -5
30 -15 30 -8 0 -15 7 -15 15 0 8 -7 15 -15 15 -10 0 -15 10 -15 29 0 20 -6 30
-20 34 -11 3 -19 10 -18 15 2 6 -1 9 -6 8 -5 0 -13 9 -17 22 -5 13 -13 20 -19
17 -10 -6 -15 15 -10 44 1 13 -1 13 -15 1 -9 -7 -15 -9 -14 -4 4 25 -3 44 -16
44 -8 0 -15 7 -15 15 0 8 -7 15 -15 15 -9 0 -15 9 -15 21 0 15 -5 19 -15 15
-11 -4 -15 1 -15 19 0 16 -6 25 -15 25 -8 0 -15 5 -15 11 0 5 -6 7 -12 3 -8
-5 -7 0 2 11 14 17 13 18 -2 12 -12 -4 -18 -1 -18 9 0 8 -7 17 -15 20 -8 4
-15 12 -15 20 0 8 -7 14 -15 14 -8 0 -15 7 -15 15 0 8 -7 15 -15 15 -8 0 -15
7 -15 15 0 8 -7 15 -15 15 -8 0 -15 7 -15 16 0 10 -6 14 -15 10 -10 -4 -15 1
-15 14 0 11 -6 20 -14 20 -8 0 -17 7 -20 16 -3 8 -10 12 -16 9 -5 -3 -10 -1
-10 5 0 6 -5 8 -13 4 -7 -5 -6 0 3 11 14 17 13 18 -2 13 -11 -5 -18 0 -21 13
-3 11 -14 19 -27 19 -13 0 -24 8 -27 19 -3 11 -11 17 -18 15 -7 -3 -15 4 -18
16 -3 12 -10 19 -16 15 -6 -3 -11 1 -11 9 0 9 -7 16 -15 16 -8 0 -15 7 -15 15
0 8 -7 15 -15 15 -8 0 -15 7 -15 15 0 8 -3 14 -7 14 -24 -4 -53 2 -53 11 0 12
-37 50 -49 50 -5 0 -11 7 -15 15 -3 8 -9 15 -13 14 -25 -4 -43 3 -43 16 0 8
-6 15 -14 15 -8 0 -16 7 -20 15 -3 8 -17 15 -32 15 -19 0 -25 4 -20 15 4 11
-1 15 -17 15 -12 0 -29 5 -37 11 -13 9 -12 10 3 5 9 -3 17 -1 17 4 0 10 -21
14 -49 10 -9 -1 -12 4 -8 14 5 12 0 16 -24 16 -17 0 -32 6 -35 15 -4 8 -12 15
-20 15 -8 0 -14 6 -14 13 0 7 -12 14 -26 15 -15 1 -32 9 -38 17 -6 8 -25 16
-43 17 -17 1 -29 6 -26 11 3 4 12 6 20 3 8 -4 11 -1 7 5 -3 6 -15 9 -25 6 -11
-3 -19 -1 -19 4 0 4 -6 6 -14 3 -7 -3 -16 2 -19 10 -4 9 -16 16 -27 16 -11 0
-23 7 -26 15 -4 8 -18 15 -31 15 -14 0 -31 7 -37 15 -7 10 -29 17 -54 18 -37
1 -40 3 -21 12 19 11 17 12 -17 13 -21 1 -41 7 -46 14 -4 7 -8 9 -8 3 0 -5 -4
-4 -9 4 -5 7 -25 14 -45 14 -20 1 -36 5 -36 10 0 5 7 6 16 3 8 -3 12 -2 9 4
-3 6 -26 10 -51 10 -25 0 -43 4 -39 9 7 12 -17 20 -69 23 -21 1 -40 8 -43 15
-3 7 -21 13 -43 13 -21 0 -42 6 -48 13 -6 7 -33 14 -59 16 -26 1 -54 7 -62 12
-14 9 -13 10 2 5 11 -3 15 -2 12 4 -3 6 -35 10 -70 10 -44 0 -64 4 -68 14 -4
9 -28 14 -79 15 -102 4 -114 6 -130 19 -8 6 -61 12 -126 13 -62 2 -115 6 -118
10 -2 4 8 6 23 3 15 -3 24 -2 20 2 -13 13 -247 12 -240 0 5 -7 2 -7 -8 0 -18
14 -221 15 -212 1 4 -6 1 -7 -8 -1 -23 14 -109 12 -109 -3 0 -9 -14 -13 -41
-13 -29 0 -38 3 -33 13 6 9 5 9 -7 0 -8 -6 -43 -13 -77 -14 -43 -2 -61 -6 -58
-14 2 -6 -2 -12 -9 -12 -7 0 -11 6 -8 13 5 14 -22 13 -34 -1 -4 -4 -2 -5 6 0
9 5 12 4 7 -3 -4 -7 -34 -12 -71 -12 -52 0 -64 -3 -68 -17 -4 -17 -5 -17 -6 0
-1 21 -21 23 -21 2 0 -8 -5 -15 -11 -15 -5 0 -7 5 -4 10 3 6 2 10 -4 10 -5 0
-11 -4 -13 -9 -1 -6 -27 -11 -56 -12 -29 -2 -56 -7 -59 -12 -3 -6 -1 -7 5 -3
6 3 13 3 15 -2 3 -4 -18 -9 -46 -10 -68 -3 -85 -6 -94 -17 -4 -4 -3 -5 4 -1 6
3 14 3 17 -2 3 -5 -18 -9 -47 -11 -32 -1 -56 -8 -63 -16 -6 -8 -25 -15 -42
-15 -38 0 -64 -9 -56 -21 4 -8 -53 -15 -80 -10 -5 1 -6 -5 -3 -14 6 -14 -16
-21 -47 -16 -5 1 -13 -4 -17 -11 -9 -14 -12 -15 -59 -17 -19 -1 -30 -6 -30
-16 0 -9 -9 -15 -25 -15 -13 0 -28 -7 -33 -16 -5 -9 -12 -15 -15 -15 -26 4
-47 0 -43 -8 7 -11 -17 -21 -50 -21 -17 0 -22 -4 -18 -15 5 -11 -1 -15 -25
-15 -23 0 -31 -5 -32 -17 0 -15 -2 -15 -9 2 -7 17 -9 17 -9 3 -1 -12 -9 -18
-26 -18 -19 0 -23 -4 -18 -17 6 -16 5 -17 -12 -3 -11 9 -16 10 -11 3 5 -9 -1
-13 -21 -13 -22 0 -25 -2 -13 -10 8 -5 11 -10 5 -11 -5 -1 -14 -3 -20 -4 -5
-2 -18 -3 -27 -4 -10 0 -18 -5 -18 -11 0 -5 8 -7 18 -4 14 5 15 4 1 -5 -8 -5
-27 -11 -42 -13 -14 -2 -30 -8 -34 -13 -4 -4 -3 -5 4 -1 6 3 14 2 18 -4 4 -6
-8 -10 -29 -10 -27 0 -34 -3 -30 -15 5 -11 -1 -15 -19 -15 -14 0 -29 -5 -33
-12 -5 -8 -2 -9 10 -5 10 4 15 3 11 -3 -3 -6 -17 -10 -31 -10 -15 0 -24 -6
-24 -15 0 -8 -5 -15 -11 -15 -5 0 -7 6 -4 13 4 6 0 4 -8 -6 -9 -10 -17 -17
-20 -15 -3 2 -9 -1 -14 -6 -4 -5 -3 -6 4 -2 6 3 15 2 18 -4 4 -6 3 -10 -2 -9
-25 4 -53 -2 -48 -11 3 -6 -2 -13 -11 -17 -10 -3 -26 -15 -36 -25 -9 -9 -24
-15 -33 -12 -11 5 -13 2 -9 -10 4 -12 0 -16 -15 -16 -12 0 -21 -6 -21 -15 0
-8 -6 -15 -13 -15 -15 0 -47 -35 -47 -53 0 -6 -8 -3 -17 8 -13 16 -15 17 -10
3 4 -12 1 -18 -8 -18 -8 0 -19 -9 -25 -20 -6 -11 -16 -17 -22 -14 -7 5 -9 1
-5 -9 5 -12 1 -17 -13 -17 -11 0 -20 -7 -20 -15 0 -8 -7 -15 -15 -15 -8 0 -15
-7 -15 -15 0 -8 -7 -15 -15 -15 -8 0 -15 -7 -15 -15 0 -8 -7 -15 -15 -15 -8 0
-15 -7 -15 -16 0 -8 -5 -12 -11 -9 -6 4 -13 -2 -16 -14 -3 -12 -12 -21 -19
-21 -8 0 -14 -7 -14 -15 0 -8 -7 -15 -15 -15 -8 0 -15 -7 -15 -15 0 -8 -7 -15
-15 -15 -8 0 -15 -7 -15 -15 0 -9 -9 -15 -21 -15 -18 0 -19 -2 -9 -15 10 -13
9 -15 -9 -15 -15 0 -21 -5 -19 -17 2 -12 -3 -17 -13 -15 -10 1 -19 -6 -22 -19
-3 -12 -10 -18 -17 -14 -7 4 -10 0 -8 -11 2 -10 -2 -19 -9 -19 -6 0 -15 -4
-20 -9 -5 -5 -3 -6 5 -2 6 4 12 2 12 -3 0 -6 -7 -11 -16 -11 -10 0 -14 -6 -10
-15 3 -8 1 -15 -3 -15 -5 0 -12 6 -14 13 -3 6 -6 -2 -6 -20 -1 -25 -5 -31 -16
-27 -9 4 -15 0 -15 -10 0 -9 -7 -16 -16 -16 -8 0 -13 -4 -9 -9 3 -5 1 -12 -5
-16 -6 -4 -8 -10 -5 -15 3 -5 0 -12 -6 -16 -7 -4 -9 -3 -5 4 3 6 2 14 -4 17
-6 4 -10 3 -9 -2 5 -27 -3 -53 -16 -53 -8 0 -15 -7 -15 -15 0 -8 -7 -15 -15
-15 -9 0 -15 -9 -15 -25 0 -14 -7 -28 -15 -31 -8 -4 -15 -13 -15 -21 0 -8 -4
-12 -9 -8 -5 3 -12 1 -16 -5 -3 -5 0 -10 7 -10 8 0 6 -5 -5 -11 -9 -6 -15 -14
-12 -20 4 -5 -1 -12 -9 -15 -9 -3 -16 -17 -16 -29 0 -13 -4 -27 -10 -30 -6 -3
-7 1 -4 9 3 9 1 16 -5 16 -6 0 -11 -13 -11 -30 0 -18 -5 -29 -12 -27 -7 1 -12
-4 -13 -11 0 -8 -9 -21 -20 -29 -16 -13 -17 -15 -2 -10 9 4 17 2 17 -3 0 -6
-7 -10 -15 -10 -14 0 -19 -15 -17 -50 0 -11 -3 -10 -14 4 -13 18 -14 17 -14
-17 0 -28 -3 -35 -15 -31 -8 4 -15 2 -15 -4 0 -6 6 -13 13 -15 10 -4 10 -6 0
-6 -7 -1 -13 -7 -13 -15 0 -8 -7 -16 -15 -20 -9 -3 -15 -18 -15 -35 0 -23 -4
-29 -15 -25 -8 4 -15 1 -15 -5 0 -6 6 -11 13 -11 8 0 8 -3 1 -8 -6 -4 -14 -16
-18 -27 -5 -14 -9 -16 -15 -7 -7 12 -12 -18 -12 -70 0 -10 -7 -18 -15 -18 -8
0 -14 -9 -14 -21 0 -11 -4 -18 -9 -14 -5 3 -13 0 -17 -6 -4 -7 -3 -9 4 -5 6 3
13 2 17 -4 3 -5 -1 -10 -9 -10 -12 0 -16 -11 -16 -46 0 -28 -4 -43 -10 -39 -6
4 -7 12 -4 18 4 7 3 8 -1 4 -9 -8 -12 -19 -18 -77 -2 -18 -9 -36 -16 -38 -6
-2 -11 -17 -11 -33 0 -16 -4 -29 -10 -29 -5 0 -7 8 -3 18 3 9 3 14 -1 11 -8
-7 -16 -47 -19 -92 -2 -24 -4 -26 -12 -11 -5 9 -18 26 -27 36 -10 10 -18 22
-18 27 0 5 -9 11 -21 14 -14 4 -18 10 -13 18 5 8 2 11 -8 6 -11 -4 -18 1 -21
15 -3 11 -10 17 -16 13 -7 -3 -11 2 -11 14 0 12 -7 21 -15 21 -8 0 -15 7 -15
15 0 8 -7 15 -15 15 -8 0 -15 7 -15 15 0 8 -7 15 -15 15 -8 0 -15 7 -15 15 0
8 -7 15 -15 15 -8 0 -15 7 -15 15 0 8 -7 15 -15 15 -8 0 -15 7 -15 15 0 8 -7
15 -16 15 -10 0 -14 6 -10 15 4 10 -1 15 -14 15 -13 0 -20 7 -20 20 0 11 -6
19 -12 17 -7 -1 -12 4 -11 11 2 7 -7 12 -20 12 -16 0 -18 3 -8 9 11 7 9 10 -8
16 -12 3 -28 21 -36 38 -9 18 -13 24 -10 15 2 -10 0 -18 -5 -18 -6 0 -10 9
-10 20 0 14 -5 18 -17 13 -11 -4 -14 -3 -9 6 5 8 0 18 -13 27 -12 8 -21 24
-21 36 0 14 -5 18 -15 14 -8 -3 -15 -1 -15 5 0 6 -4 8 -9 4 -5 -3 -13 0 -17 6
-4 8 -3 9 4 5 7 -4 12 -2 12 3 0 6 -4 11 -10 11 -5 0 -10 7 -10 16 0 8 -5 12
-11 9 -6 -4 -13 2 -16 13 -2 11 -15 23 -26 26 -18 5 -19 8 -8 15 11 7 9 10
-10 13 -13 2 -23 9 -22 16 2 6 -4 12 -12 12 -8 0 -15 7 -15 16 0 8 -5 12 -11
9 -6 -4 -13 2 -16 14 -3 12 -12 21 -20 21 -9 0 -13 6 -9 15 4 10 -1 15 -14 15
-13 0 -20 7 -20 20 0 13 -5 18 -15 14 -9 -4 -15 0 -15 10 0 9 -7 16 -16 16
-10 0 -14 6 -10 15 4 10 -1 15 -14 15 -14 0 -20 7 -20 21 0 11 -4 18 -9 14 -5
-3 -12 4 -16 14 -4 13 -11 18 -22 14 -11 -4 -14 -3 -9 5 4 7 1 15 -8 18 -15 6
-32 41 -28 57 1 5 -2 6 -8 2 -6 -3 -8 -11 -5 -16 4 -5 1 -9 -4 -9 -6 0 -11 12
-11 26 0 17 -6 28 -19 31 -12 3 -17 11 -14 19 3 8 2 14 -3 13 -23 -4 -33 2
-28 19 5 14 3 14 -12 -3 -14 -17 -16 -17 -11 -2 4 9 2 17 -3 17 -5 0 -7 7 -4
15 4 9 0 15 -10 15 -9 0 -16 7 -16 15 0 8 -7 15 -15 15 -8 0 -15 7 -15 15 0 8
-7 15 -15 15 -8 0 -15 7 -15 16 0 10 -6 14 -15 10 -10 -4 -15 1 -15 14 0 11
-7 20 -15 20 -8 0 -15 9 -15 20 0 13 -5 18 -15 14 -9 -4 -15 0 -15 10 0 9 -7
16 -16 16 -8 0 -12 5 -9 11 4 6 -3 13 -15 16 -13 3 -19 11 -16 19 3 9 -2 14
-14 14 -11 0 -20 7 -20 15 0 9 -7 18 -15 21 -8 4 -15 12 -15 20 0 8 -6 11 -17
7 -10 -4 -14 -2 -10 4 10 16 -22 53 -45 53 -21 0 -21 0 -2 15 16 13 16 14 2 9
-11 -4 -18 -1 -18 6 0 7 -7 10 -16 6 -8 -3 -12 -2 -9 3 3 5 1 12 -4 16 -6 3
-7 13 -4 22 4 11 3 14 -5 9 -16 -9 -60 35 -54 54 5 13 3 13 -12 1 -9 -8 -16
-10 -15 -5 4 23 -2 45 -12 39 -6 -4 -13 2 -16 14 -3 12 -12 21 -19 21 -8 0
-14 6 -14 14 0 7 -9 16 -21 19 -12 3 -18 10 -14 16 3 6 -1 11 -9 11 -9 0 -16
7 -16 15 0 8 -4 15 -10 15 -13 0 -50 37 -50 50 0 6 -6 10 -14 10 -7 0 -16 9
-19 21 -3 12 -10 18 -16 14 -6 -3 -11 1 -11 9 0 9 -7 16 -16 16 -10 0 -14 6
-10 15 5 14 -6 20 -28 16 -5 -1 -3 5 4 14 7 9 9 15 4 14 -25 -4 -44 3 -44 16
0 9 -7 18 -15 21 -8 4 -15 14 -15 24 0 11 -4 22 -10 25 -6 4 -7 -1 -4 -12 5
-17 5 -17 -9 0 -9 11 -13 26 -10 35 4 12 1 12 -10 -3 -16 -20 -16 -20 -17 4 0
16 -16 40 -45 68 -25 23 -45 48 -45 53 0 6 -5 8 -11 5 -6 -4 -13 3 -16 15 -3
13 -11 19 -19 16 -9 -3 -14 2 -14 14 0 13 -7 20 -20 20 -13 0 -18 5 -14 15 4
9 0 15 -10 15 -9 0 -16 7 -16 15 0 8 -6 15 -14 15 -8 0 -18 9 -21 20 -4 11
-11 18 -16 15 -5 -4 -9 1 -9 9 0 9 -7 16 -15 16 -8 0 -15 5 -15 10 0 13 -37
50 -50 50 -5 0 -10 7 -10 15 0 8 -7 15 -15 15 -9 0 -15 9 -15 24 0 14 -4 28
-10 31 -6 3 -7 -1 -4 -9 3 -9 1 -16 -5 -16 -6 0 -11 5 -11 11 0 7 -8 18 -17
25 -17 13 -17 14 2 9 16 -5 15 -3 -3 6 -14 8 -21 18 -17 28 3 11 0 9 -10 -3
-9 -13 -15 -15 -15 -7 0 8 -8 20 -17 27 -17 13 -17 14 1 7 16 -5 16 -3 -5 18
-13 13 -27 23 -31 22 -5 -2 -8 7 -8 20 -1 22 -1 22 -16 2 l-16 -20 4 20 c2 13
-2 19 -11 17 -12 -3 -12 -1 0 14 12 16 12 17 -3 11 -10 -3 -18 -2 -18 4 0 6
-6 7 -12 3 -8 -5 -7 0 2 11 14 17 13 18 -2 12 -13 -5 -18 -1 -18 13 0 11 -7
20 -15 20 -8 0 -15 7 -15 15 0 8 -4 15 -10 15 -13 0 -50 37 -50 51 0 5 -5 7
-11 4 -6 -4 -13 3 -16 15 -3 13 -11 19 -19 16 -9 -3 -14 2 -14 14 0 11 -7 20
-16 20 -8 0 -12 5 -9 11 4 6 -2 13 -14 16 -12 3 -21 13 -21 24 0 12 -5 16 -15
13 -14 -6 -21 18 -16 49 1 5 -3 6 -9 2 -6 -3 -8 -11 -5 -16 4 -5 1 -9 -4 -9
-6 0 -11 9 -11 20 0 13 -5 18 -15 14 -11 -5 -13 -2 -9 10 4 10 1 16 -10 16
-18 0 -39 33 -28 46 4 5 -1 2 -11 -6 -17 -12 -18 -12 -15 5 2 12 -3 20 -12 20
-8 0 -16 6 -16 13 -1 6 -2 20 -3 29 -1 15 -3 15 -16 -3 -11 -14 -14 -15 -9 -2
7 20 -32 62 -51 55 -7 -3 -12 0 -12 6 1 37 -5 47 -25 47 -12 0 -19 3 -16 6 9
9 -38 54 -57 54 -9 0 -19 9 -22 19 -3 12 -11 17 -19 14 -9 -3 -14 1 -14 11 0
9 -6 16 -12 15 -28 -3 -48 2 -48 12 0 5 6 7 13 3 9 -5 9 -4 1 5 -6 7 -30 12
-53 13 -36 0 -39 2 -24 13 14 11 9 13 -32 13 -31 1 -52 7 -57 16 -6 11 -38 14
-163 14 -85 0 -156 -3 -156 -7z m31 -7 c0 -8 -19 -13 -24 -6 -3 5 1 9 9 9 8 0
15 -2 15 -3z m40 2 c0 -2 -7 -7 -16 -10 -8 -3 -12 -2 -9 4 6 10 25 14 25 6z
m215 -6 c3 -6 -1 -7 -9 -4 -18 7 -21 14 -7 14 6 0 13 -4 16 -10z m-931 -980
c-6 -6 -10 -3 -10 10 0 13 4 16 10 10 7 -7 7 -13 0 -20z m7681 -39 c2 -5 -7
-8 -20 -8 -14 0 -25 2 -25 6 0 10 39 11 45 2z m175 4 c0 -7 -30 -13 -34 -7 -3
4 4 9 15 9 10 1 19 0 19 -2z m260 -6 c0 -4 -13 -6 -29 -5 -16 0 -28 3 -26 6 5
8 55 7 55 -1z m-8264 -459 c0 -12 -4 -16 -9 -11 -5 5 -6 14 -3 20 10 15 12 14
12 -9z m3169 -530 c3 -5 1 -10 -4 -10 -6 0 -11 5 -11 10 0 6 2 10 4 10 3 0 8
-4 11 -10z m1965 -510 c0 -5 -2 -10 -4 -10 -3 0 -8 5 -11 10 -3 6 -1 10 4 10
6 0 11 -4 11 -10z m-580 -960 c0 -5 -2 -10 -4 -10 -3 0 -8 5 -11 10 -3 6 -1
10 4 10 6 0 11 -4 11 -10z m6717 -2545 c0 -8 -4 -12 -9 -9 -5 3 -6 10 -3 15 9
13 12 11 12 -6z m-12287 -889 c0 -3 -4 -8 -10 -11 -5 -3 -10 -1 -10 4 0 6 5
11 10 11 6 0 10 -2 10 -4z m205 -65 c-9 -8 -36 -10 -30 -2 2 4 11 8 20 8 8 0
13 -3 10 -6z m90 -1 c3 -5 1 -10 -4 -10 -6 0 -11 5 -11 10 0 6 2 10 4 10 3 0
8 -4 11 -10z m11305 -60 c0 -5 -2 -10 -4 -10 -3 0 -8 5 -11 10 -3 6 -1 10 4
10 6 0 11 -4 11 -10z"/>
<path d="M2730 12370 c0 -5 5 -10 11 -10 5 0 7 5 4 10 -3 6 -8 10 -11 10 -2 0
-4 -4 -4 -10z"/>
<path d="M9866 11712 c-3 -5 1 -9 9 -9 8 0 12 4 9 9 -3 4 -7 8 -9 8 -2 0 -6
-4 -9 -8z"/>
<path d="M10955 11710 c3 -5 8 -10 11 -10 2 0 4 5 4 10 0 6 -5 10 -11 10 -5 0
-7 -4 -4 -10z"/>
<path d="M10987 11709 c7 -7 15 -10 18 -7 3 3 -2 9 -12 12 -14 6 -15 5 -6 -5z"/>
<path d="M11500 11590 c0 -5 7 -7 15 -4 8 4 15 8 15 10 0 2 -7 4 -15 4 -8 0
-15 -4 -15 -10z"/>
<path d="M2436 11404 c-8 -20 -8 -24 2 -24 4 0 8 9 9 20 2 24 -3 26 -11 4z"/>
<path d="M5110 11260 c0 -5 5 -10 11 -10 5 0 7 5 4 10 -3 6 -8 10 -11 10 -2 0
-4 -4 -4 -10z"/>
<path d="M12250 11260 c0 -5 5 -10 11 -10 5 0 7 5 4 10 -3 6 -8 10 -11 10 -2
0 -4 -4 -4 -10z"/>
<path d="M12495 11110 c-3 -5 -1 -10 4 -10 6 0 11 5 11 10 0 6 -2 10 -4 10 -3
0 -8 -4 -11 -10z"/>
<path d="M6525 9760 c3 -5 8 -10 11 -10 2 0 4 5 4 10 0 6 -5 10 -11 10 -5 0
-7 -4 -4 -10z"/>
<path d="M7170 9610 c0 -5 5 -10 11 -10 5 0 7 5 4 10 -3 6 -8 10 -11 10 -2 0
-4 -4 -4 -10z"/>
<path d="M7080 9370 c0 -5 5 -10 11 -10 5 0 7 5 4 10 -3 6 -8 10 -11 10 -2 0
-4 -4 -4 -10z"/>
<path d="M13933 8925 c0 -8 4 -12 9 -9 5 3 6 10 3 15 -9 13 -12 11 -12 -6z"/>
<path d="M13995 8531 c-3 -5 -2 -12 3 -15 5 -3 9 1 9 9 0 17 -3 19 -12 6z"/>
<path d="M1560 8475 c0 -8 4 -15 10 -15 5 0 7 7 4 15 -4 8 -8 15 -10 15 -2 0
-4 -7 -4 -15z"/>
<path d="M13993 7900 c1 -11 5 -20 9 -20 3 0 6 9 5 20 -1 11 -5 20 -9 20 -3 0
-6 -9 -5 -20z"/>
<path d="M13990 7799 c0 -5 5 -7 10 -4 6 3 10 8 10 11 0 2 -4 4 -10 4 -5 0
-10 -5 -10 -11z"/>
<path d="M1110 6970 c0 -5 5 -10 10 -10 6 0 10 5 10 10 0 6 -4 10 -10 10 -5 0
-10 -4 -10 -10z"/>
<path d="M994 6450 c0 -38 2 -70 5 -70 4 0 6 32 7 70 0 39 -2 70 -5 70 -4 0
-6 -31 -7 -70z"/>
<path d="M3220 6089 c0 -5 5 -7 10 -4 6 3 10 8 10 11 0 2 -4 4 -10 4 -5 0 -10
-5 -10 -11z"/>
<path d="M13335 6090 c-3 -5 -1 -10 4 -10 6 0 11 5 11 10 0 6 -2 10 -4 10 -3
0 -8 -4 -11 -10z"/>
<path d="M13305 6060 c-3 -5 -1 -10 4 -10 6 0 11 5 11 10 0 6 -2 10 -4 10 -3
0 -8 -4 -11 -10z"/>
<path d="M2716 5972 c-3 -5 1 -9 9 -9 8 0 12 4 9 9 -3 4 -7 8 -9 8 -2 0 -6 -4
-9 -8z"/>
<path d="M2044 5818 c-3 -4 2 -8 10 -8 8 0 17 4 20 8 3 5 -2 9 -10 9 -8 0 -17
-4 -20 -9z"/>
<path d="M12555 5310 c3 -5 8 -10 11 -10 2 0 4 5 4 10 0 6 -5 10 -11 10 -5 0
-7 -4 -4 -10z"/>
<path d="M11230 4710 c0 -5 5 -10 11 -10 5 0 7 5 4 10 -3 6 -8 10 -11 10 -2 0
-4 -4 -4 -10z"/>
<path d="M10890 4648 c0 -4 4 -8 9 -8 6 0 12 4 15 8 3 5 -1 9 -9 9 -8 0 -15
-4 -15 -9z"/>
</g>
</svg>
