<svg width="40" height="40" viewBox="0 0 40 40" fill="none" xmlns="http://www.w3.org/2000/svg">
<g clip-path="url(#clip0_111_7096)">
<path fill-rule="evenodd" clip-rule="evenodd" d="M9.0125 0H30.9875C35.965 0 40 4.03503 40 9.0125V30.9875C40 35.965 35.965 40 30.9875 40H9.0125C4.03503 40 0 35.965 0 30.9875V9.0125C0 4.03503 4.03503 0 9.0125 0ZM20.0042 32.725C21.4292 32.125 27.6792 28.2125 30.4792 24.9875C32.4042 22.8625 33.3417 20.7125 33.3417 18.325C33.3417 12.3625 27.3542 7.5 20.0042 7.5C12.6417 7.5 6.66667 12.3625 6.66667 18.325C6.66667 23.675 11.4042 28.1625 17.8167 29C18.2542 29.1 18.8417 29.2875 18.9917 29.6625C19.1292 30 19.0792 30.525 19.0292 30.875C18.9292 31.5 18.8667 31.8792 18.8417 32.0125L18.8344 32.0597C18.7763 32.4314 18.6408 33.299 20.0042 32.725ZM24.9458 21.5625H28.6958C28.8333 21.5625 28.9458 21.45 28.9458 21.3125V20.3625C28.9458 20.225 28.8333 20.1125 28.6958 20.1125H26.1458V19.125H28.6958C28.8333 19.125 28.9458 19.0125 28.9458 18.875V17.925C28.9458 17.7875 28.8333 17.675 28.6958 17.675H26.1458V16.6875H28.6958C28.8333 16.6875 28.9458 16.575 28.9458 16.4375V15.4875C28.9458 15.35 28.8333 15.2375 28.6958 15.2375H24.9458C24.8083 15.2375 24.6958 15.35 24.6958 15.4875V21.3V21.3125C24.6958 21.45 24.8083 21.5625 24.9458 21.5625ZM11.0958 21.5625H11.0833C10.9458 21.5625 10.8333 21.45 10.8333 21.3125V21.3V15.4875C10.8333 15.35 10.9458 15.2375 11.0833 15.2375H12.0333C12.1708 15.2375 12.2833 15.35 12.2833 15.4875V20.1125H14.8333C14.9708 20.1125 15.0833 20.225 15.0833 20.3625V21.3125C15.0833 21.45 14.9708 21.5625 14.8333 21.5625H11.0958ZM16.1334 15.2375H17.0834C17.2215 15.2375 17.3334 15.3494 17.3334 15.4875V21.3125C17.3334 21.4505 17.2215 21.5625 17.0834 21.5625H16.1334C15.9953 21.5625 15.8834 21.4505 15.8834 21.3125V15.4875C15.8834 15.3494 15.9953 15.2375 16.1334 15.2375ZM23.7834 15.4875V21.3125C23.7834 21.45 23.6709 21.5625 23.5209 21.5625H22.5834C22.5584 21.5625 22.5375 21.5583 22.5209 21.55H22.4958V21.5375H22.4834H22.4709L22.4584 21.525C22.45 21.525 22.4459 21.5208 22.4459 21.5125H22.4333C22.4083 21.4958 22.3875 21.475 22.3708 21.45L19.7084 17.85V21.3125C19.7084 21.45 19.5959 21.5625 19.4459 21.5625H18.5084C18.3709 21.5625 18.2458 21.45 18.2458 21.3125V15.4875C18.2458 15.35 18.3709 15.2375 18.5084 15.2375H19.4459H19.4584H19.4709H19.4834H19.4958H19.5084H19.5209C19.5209 15.2458 19.525 15.25 19.5334 15.25H19.5459L19.5583 15.2625H19.5834V15.275C19.5917 15.275 19.5959 15.2791 19.5959 15.2875H19.6084L19.6208 15.3L19.6459 15.325C19.6542 15.3333 19.6584 15.3416 19.6584 15.35L22.3209 18.9375V15.4875C22.3209 15.35 22.4459 15.2375 22.5834 15.2375H23.5209C23.6709 15.2375 23.7834 15.35 23.7834 15.4875Z" fill="#06C755"/>
</g>
<defs>
<clipPath id="clip0_111_7096">
<rect width="40" height="40" fill="white"/>
</clipPath>
</defs>
</svg>
