<svg width="21" height="20" viewBox="0 0 21 20" fill="none" xmlns="http://www.w3.org/2000/svg">
<g id="Icon/Outline/share">
<path id="Icon" d="M7.48656 11.1183C7.65513 10.7818 7.75 10.402 7.75 10C7.75 9.59803 7.65513 9.21821 7.48656 8.88172M7.48656 11.1183C7.07611 11.9376 6.22874 12.5 5.25 12.5C3.86929 12.5 2.75 11.3807 2.75 10C2.75 8.61929 3.86929 7.5 5.25 7.5C6.22874 7.5 7.07611 8.06243 7.48656 8.88172M7.48656 11.1183L13.0134 13.8817M7.48656 8.88172L13.0134 6.11828M13.0134 6.11828C13.4239 6.93757 14.2713 7.5 15.25 7.5C16.6307 7.5 17.75 6.38071 17.75 5C17.75 3.61929 16.6307 2.5 15.25 2.5C13.8693 2.5 12.75 3.61929 12.75 5C12.75 5.40197 12.8449 5.78179 13.0134 6.11828ZM13.0134 13.8817C12.8449 14.2182 12.75 14.598 12.75 15C12.75 16.3807 13.8693 17.5 15.25 17.5C16.6307 17.5 17.75 16.3807 17.75 15C17.75 13.6193 16.6307 12.5 15.25 12.5C14.2713 12.5 13.4239 13.0624 13.0134 13.8817Z" stroke="#0F1A2A" stroke-width="1.25" stroke-linecap="round" stroke-linejoin="round"/>
</g>
</svg>
