<svg width="14" height="14" viewBox="0 0 14 14" fill="none" xmlns="http://www.w3.org/2000/svg">
<g id="more">
<path id="Union" d="M2.40625 5.6875C2.84375 5.69654 3.206 5.84471 3.493 6.132C3.78 6.41929 3.92817 6.78154 3.9375 7.21875C3.92846 7.65625 3.78029 8.0185 3.493 8.3055C3.20571 8.5925 2.84346 8.74067 2.40625 8.75C1.96875 8.74096 1.6065 8.59279 1.3195 8.3055C1.0325 8.01821 0.884333 7.65596 0.875 7.21875C0.884042 6.78125 1.03221 6.419 1.3195 6.132C1.60679 5.845 1.96904 5.69683 2.40625 5.6875ZM7 5.6875C7.4375 5.69654 7.79975 5.84471 8.08675 6.132C8.37375 6.41929 8.52192 6.78154 8.53125 7.21875C8.52221 7.65625 8.37404 8.0185 8.08675 8.3055C7.79946 8.5925 7.43721 8.74067 7 8.75C6.5625 8.74096 6.20025 8.59279 5.91325 8.3055C5.62625 8.01821 5.47808 7.65596 5.46875 7.21875C5.47779 6.78125 5.62596 6.419 5.91325 6.132C6.20054 5.845 6.56279 5.69683 7 5.6875ZM11.5938 5.6875C12.0312 5.69654 12.3935 5.84471 12.6805 6.132C12.9675 6.41929 13.1157 6.78154 13.125 7.21875C13.116 7.65625 12.9678 8.0185 12.6805 8.3055C12.3932 8.5925 12.031 8.74067 11.5938 8.75C11.1562 8.74096 10.794 8.59279 10.507 8.3055C10.22 8.01821 10.0718 7.65596 10.0625 7.21875C10.0715 6.78125 10.2197 6.419 10.507 6.132C10.7943 5.845 11.1565 5.69683 11.5938 5.6875Z" fill="#64748B"/>
</g>
</svg>
