<svg width="40" height="40" viewBox="0 0 40 40" fill="none" xmlns="http://www.w3.org/2000/svg">
<g clip-path="url(#clip0_111_7094)">
<g clip-path="url(#clip1_111_7094)">
<path d="M20.0001 6.66669L14.6667 12L17.3334 14.6667L22.6667 9.33336C24.8667 7.13336 28.4667 7.13336 30.6668 9.33337C32.8668 11.5334 32.8668 15.1334 30.6668 17.3334L25.3334 22.6667L28.0001 25.3334L33.3334 20.0001C37.0134 16.3201 37.0134 10.3467 33.3334 6.66669C29.6534 2.98668 23.6801 2.98668 20.0001 6.66669ZM22.6667 25.3334L17.3334 30.6668C15.1334 32.8668 11.5334 32.8668 9.33336 30.6668C7.13335 28.4668 7.13335 24.8667 9.33336 22.6667L14.6667 17.3334L12 14.6667L6.66669 20.0001C2.98668 23.6801 2.98668 29.6534 6.66669 33.3334C10.3467 37.0134 16.32 37.0134 20.0001 33.3334L25.3334 28.0001L22.6667 25.3334ZM13.3334 24.0001L24.0001 13.3334L26.6667 16.0001L16 26.6667L13.3334 24.0001Z" fill="#64748B"/>
</g>
</g>
<defs>
<clipPath id="clip0_111_7094">
<rect width="40" height="40" fill="white"/>
</clipPath>
<clipPath id="clip1_111_7094">
<rect width="40" height="40" fill="white"/>
</clipPath>
</defs>
</svg>
