<svg width="12" height="12" viewBox="0 0 12 12" fill="none" xmlns="http://www.w3.org/2000/svg">
<g id="Icon/Solid/camera">
<path id="Icon" fill-rule="evenodd" clip-rule="evenodd" d="M2.39995 2.9998C1.73721 2.9998 1.19995 3.53706 1.19995 4.1998V8.9998C1.19995 9.66255 1.73721 10.1998 2.39995 10.1998H9.59995C10.2627 10.1998 10.8 9.66255 10.8 8.9998V4.1998C10.8 3.53706 10.2627 2.9998 9.59995 2.9998H8.64848C8.48935 2.9998 8.33674 2.93659 8.22422 2.82407L7.55142 2.15128C7.32638 1.92623 7.02116 1.7998 6.7029 1.7998H5.29701C4.97875 1.7998 4.67352 1.92623 4.44848 2.15128L3.77569 2.82407C3.66317 2.93659 3.51055 2.9998 3.35142 2.9998H2.39995ZM5.99995 8.3998C6.99406 8.3998 7.79995 7.59392 7.79995 6.5998C7.79995 5.60569 6.99406 4.7998 5.99995 4.7998C5.00584 4.7998 4.19995 5.60569 4.19995 6.5998C4.19995 7.59392 5.00584 8.3998 5.99995 8.3998Z" fill="#94A3B8"/>
</g>
</svg>
