<svg width="20" height="20" viewBox="0 0 20 20" fill="none" xmlns="http://www.w3.org/2000/svg">
<g id="state=on">
<path id="eye" d="M10 3C14.9375 3 18.0625 7.6875 19 10C18.0625 12.3438 14.9375 17 10 17C5.03125 17 1.9375 12.3438 1 10C1.9375 7.6875 5.03125 3 10 3ZM14.5 10C14.5 7.53125 12.4688 5.5 10 5.5C7.5 5.5 5.5 7.53125 5.5 10C5.5 12.5 7.5 14.5 10 14.5C12.4688 14.5 14.5 12.5 14.5 10ZM7 10C7 9.8125 7 9.625 7.03125 9.4375L10 10L9.40625 7.0625C9.59375 7.03125 9.78125 7 10 7C11.6562 7 13 8.34375 13 10C13 11.6562 11.6562 13 10 13C8.34375 13 7 11.6562 7 10Z" fill="#94A3B8"/>
</g>
</svg>
