<svg width="18" height="18" viewBox="0 0 18 18" fill="none" xmlns="http://www.w3.org/2000/svg">
<g id="icon-sns-google" clip-path="url(#clip0_100_8898)">
<g id="Group 4">
<path id="Vector" d="M17.6391 9.20409C17.6391 8.56595 17.5818 7.95234 17.4754 7.36328H8.99951V10.8445H13.8429C13.6343 11.9694 13.0002 12.9225 12.0471 13.5607V15.8187H14.9556C16.6573 14.252 17.6391 11.9449 17.6391 9.20409Z" fill="#4285F4"/>
<path id="Vector_2" d="M8.99952 18.0006C11.4294 18.0006 13.4666 17.1947 14.9556 15.8202L12.0471 13.5622C11.2412 14.1021 10.2104 14.4212 8.99952 14.4212C6.65555 14.4212 4.67157 12.8381 3.96388 10.7109H0.957214V13.0426C2.43805 15.9838 5.48152 18.0006 8.99952 18.0006Z" fill="#34A853"/>
<path id="Vector_3" d="M3.96389 10.7086C3.78389 10.1686 3.68163 9.59179 3.68163 8.99864C3.68163 8.40549 3.78389 7.8287 3.96389 7.28873V4.95703H0.957224C0.327256 6.21112 -0.00055521 7.59521 7.05879e-07 8.99864C7.05879e-07 10.4508 0.34771 11.8253 0.957224 13.0402L3.96389 10.7086Z" fill="#FBBC05"/>
<path id="Vector_4" d="M8.99952 3.57936C10.3208 3.57936 11.5071 4.03343 12.4398 4.9252L15.021 2.34397C13.4625 0.891772 11.4253 0 8.99952 0C5.48152 0 2.43805 2.01671 0.957214 4.95792L3.96388 7.28962C4.67157 5.16246 6.65555 3.57936 8.99952 3.57936Z" fill="#EA4335"/>
</g>
</g>
<defs>
<clipPath id="clip0_100_8898">
<rect width="18" height="18" fill="white"/>
</clipPath>
</defs>
</svg>
