<svg width="24" height="25" viewBox="0 0 24 25" fill="none" xmlns="http://www.w3.org/2000/svg">
<g id="Icon/Solid/play">
<path id="Icon" fill-rule="evenodd" clip-rule="evenodd" d="M12 22.1C17.302 22.1 21.6 17.802 21.6 12.5C21.6 7.19809 17.302 2.90002 12 2.90002C6.69809 2.90002 2.40002 7.19809 2.40002 12.5C2.40002 17.802 6.69809 22.1 12 22.1ZM11.4657 9.10157C11.0974 8.85608 10.624 8.83319 10.2338 9.04202C9.84361 9.25084 9.60002 9.65747 9.60002 10.1V14.9C9.60002 15.3426 9.84361 15.7492 10.2338 15.958C10.624 16.1669 11.0974 16.144 11.4657 15.8985L15.0657 13.4985C15.3995 13.2759 15.6 12.9012 15.6 12.5C15.6 12.0988 15.3995 11.7241 15.0657 11.5016L11.4657 9.10157Z" fill="#0F1A2A"/>
</g>
</svg>
