<svg width="22" height="22" viewBox="0 0 22 22" fill="none" xmlns="http://www.w3.org/2000/svg">
<g id="Icon/Outline/share">
<path id="Icon" d="M7.96021 12.2301C8.14564 11.86 8.25 11.4422 8.25 11C8.25 10.5578 8.14564 10.14 7.96021 9.76989M7.96021 12.2301C7.50872 13.1313 6.57661 13.75 5.5 13.75C3.98122 13.75 2.75 12.5188 2.75 11C2.75 9.48122 3.98122 8.25 5.5 8.25C6.57661 8.25 7.50872 8.86867 7.96021 9.76989M7.96021 12.2301L14.0398 15.2699M7.96021 9.76989L14.0398 6.73011M14.0398 6.73011C14.4913 7.63133 15.4234 8.25 16.5 8.25C18.0188 8.25 19.25 7.01878 19.25 5.5C19.25 3.98122 18.0188 2.75 16.5 2.75C14.9812 2.75 13.75 3.98122 13.75 5.5C13.75 5.94217 13.8544 6.35997 14.0398 6.73011ZM14.0398 15.2699C13.8544 15.64 13.75 16.0578 13.75 16.5C13.75 18.0188 14.9812 19.25 16.5 19.25C18.0188 19.25 19.25 18.0188 19.25 16.5C19.25 14.9812 18.0188 13.75 16.5 13.75C15.4234 13.75 14.4913 14.3687 14.0398 15.2699Z" stroke="#0F1A2A" stroke-width="1.375" stroke-linecap="round" stroke-linejoin="round"/>
</g>
</svg>
