<svg width="22" height="22" viewBox="0 0 22 22" fill="none" xmlns="http://www.w3.org/2000/svg">
<g id="Icon/Outline/bell">
<path id="Icon" d="M13.75 15.5833H18.3334L17.0455 14.2955C16.6962 13.9462 16.5 13.4725 16.5 12.9786V10.0833C16.5 7.6886 14.9695 5.65133 12.8334 4.8963V4.58333C12.8334 3.57081 12.0125 2.75 11 2.75C9.9875 2.75 9.16669 3.57081 9.16669 4.58333V4.8963C7.0305 5.65133 5.50002 7.6886 5.50002 10.0833V12.9786C5.50002 13.4725 5.30381 13.9462 4.95454 14.2955L3.66669 15.5833H8.25002M13.75 15.5833V16.5C13.75 18.0188 12.5188 19.25 11 19.25C9.48124 19.25 8.25002 18.0188 8.25002 16.5V15.5833M13.75 15.5833H8.25002" stroke="#0F1A2A" stroke-width="1.375" stroke-linecap="round" stroke-linejoin="round"/>
</g>
</svg>
