<svg width="20" height="20" viewBox="0 0 20 20" fill="none" xmlns="http://www.w3.org/2000/svg">
<g id="state=off" clip-path="url(#clip0_65_2136)">
<path id="eye-slash" d="M1.50235 2.43818L4.72613 4.9421C6.13459 3.81534 7.91862 2.97027 10.0156 2.97027C14.9609 2.97027 18.0908 7.6651 19.0297 9.98122C18.5915 11.0767 17.6839 12.6416 16.4006 14.0188L19.4053 16.3662C19.7321 16.607 19.7981 17.0689 19.5519 17.3916L19.5385 17.4091C19.2909 17.7336 18.8263 17.7977 18.4977 17.5556L0.594679 3.62754L0.585006 3.61991C0.261584 3.36457 0.205593 2.89575 0.459787 2.57143C0.709271 2.25313 1.16658 2.19078 1.49217 2.43069L1.50235 2.43818ZM6.94836 6.66354L9.76526 8.85446L9.42097 7.03912C9.60876 7.00782 9.79656 6.97653 10.0156 6.97653C11.6745 6.97653 13.0203 8.32238 13.0203 9.98122C13.0203 10.4194 12.9264 10.8263 12.77 11.2019L13.9593 12.1408C14.3036 11.4836 14.5227 10.7637 14.5227 9.98122C14.5227 7.50861 12.4883 5.47418 10.0156 5.47418C8.82629 5.47418 7.76213 5.94366 6.94836 6.66354ZM11.6745 14.1753L13.8967 15.9593C12.77 16.5853 11.4554 16.9922 10.0156 16.9922C5.03912 16.9922 1.94053 12.3286 1.00156 9.98122C1.31455 9.19875 1.87793 8.16588 2.66041 7.10172L5.53991 9.35524C5.50861 9.57433 5.50861 9.79343 5.50861 9.98122C5.50861 12.4851 7.51174 14.4883 10.0156 14.4883C10.579 14.4883 11.1424 14.3944 11.6745 14.1753ZM10.0156 12.9859C8.5446 12.9859 7.32394 11.9531 7.04225 10.5446L10.1408 12.9859C10.1095 12.9859 10.0469 12.9859 10.0156 12.9859Z" fill="#94A3B8"/>
</g>
<defs>
<clipPath id="clip0_65_2136">
<rect width="20" height="20" fill="white"/>
</clipPath>
</defs>
</svg>
